#!OML:ASF I:\Actors\actors\Patient Classification 2\Patient 1\Session 1\actor1.ASF
:FULLY-SPECIFIED
:DEGREES
372
root 0.0760975 18.8715 6.12598 12.2198 6.16838 3.44928
lowerback 25.9569 -1.97948 10.0224
upperback -2.94951 1.52173 5.05896
thorax -17.3168 0.00963082 -0.478775
lowerneck -18.1751 -1.16025 -1.58084
upperneck 3.85746 -1.48101 3.30601
head 4.08503 -0.550571 1.15635
rclavicle -2.54444e-014 2.22639e-014
rhumerus -32.3259 -43.1976 1.05447
rradius 39.6485
rwrist 17.7296
rhand -15.1604 -46.3791
rfingers 7.12502
rthumb 11.0101 -76.0704
lclavicle -2.54444e-014 2.22639e-014
lhumerus -20.9804 65.0324 3.67623
lradius 35.4235
lwrist -29.8258
lhand -2.38987 -19.175
lfingers 7.12502
lthumb 23.2994 9.43517
rfemur -0.524014 -7.83461 7.97347
rtibia 1.59028e-014
rfoot -18.2044 -9.7643
rtoes 4.66696
lfemur -18.8869 2.33325 -19.6863
ltibia 23.7242
lfoot -14.5996 -3.72554
ltoes -53.6591
373
root 0.0653609 18.8754 6.12286 12.5217 6.23364 2.74938
lowerback 25.6878 -2.21011 11.2306
upperback -3.03236 1.64386 5.45317
thorax -17.2401 -0.0256967 -0.728744
lowerneck -18.4702 -1.00847 -1.26422
upperneck 3.86402 -1.30428 2.80626
head 4.12076 -0.487022 0.964656
rclavicle 6.36111e-015 4.13472e-014
rhumerus -32.3066 -43.3797 0.986314
rradius 39.7622
rwrist 17.5339
rhand -14.8428 -46.679
rfingers 7.12502
rthumb 11.3163 -76.3538
lclavicle 6.36111e-015 4.13472e-014
lhumerus -20.8356 64.9914 3.78716
lradius 35.4071
lwrist -29.7822
lhand -2.35529 -19.0631
lfingers 7.12502
lthumb 23.3326 9.54287
rfemur -0.995861 -7.81754 8.86852
rtibia 6.36111e-015
rfoot -18.2033 -9.71884
rtoes 5.31565
lfemur -19.3504 2.67084 -18.9046
ltibia 23.6886
lfoot -14.398 -3.93863
ltoes -53.7222
374
root 0.0622011 18.8762 6.12551 12.6585 5.9625 2.6287
lowerback 25.5341 -2.28826 11.8214
upperback -3.0122 1.7397 5.6764
thorax -17.1134 -0.0200898 -0.829897
lowerneck -18.756 -0.911141 -1.13218
upperneck 3.88343 -1.16704 2.39552
head 4.16302 -0.441335 0.826846
rclavicle -3.73715e-014 4.13472e-014
rhumerus -32.3606 -43.5067 0.991768
rradius 39.7944
rwrist 17.5599
rhand -14.7606 -46.7653
rfingers 7.12502
rthumb 11.3957 -76.4356
lclavicle -3.73715e-014 4.13472e-014
lhumerus -20.5188 65.0472 4.11464
lradius 35.363
lwrist -29.8311
lhand -2.36987 -18.8813
lfingers 7.12502
lthumb 23.3186 9.72641
rfemur -1.25551 -7.55857 9.0002
rtibia -6.36111e-015
rfoot -18.1927 -9.74786
rtoes 5.2819
lfemur -19.4594 2.92995 -18.813
ltibia 23.638
lfoot -14.3618 -3.92029
ltoes -53.7541
375
root 0.0644801 18.8754 6.13535 12.7104 5.49184 2.8933
lowerback 25.3828 -2.27268 11.9967
upperback -2.93354 1.79934 5.79931
thorax -16.9316 0.00663634 -0.811393
lowerneck -18.9722 -0.883069 -1.17337
upperneck 3.81637 -1.09534 2.14652
head 4.17166 -0.422046 0.761586
rclavicle 5.56597e-015 0
rhumerus -32.4444 -43.7758 1.11435
rradius 39.7736
rwrist 17.7149
rhand -14.6537 -46.7126
rfingers 7.12502
rthumb 11.4987 -76.3772
lclavicle 5.56597e-015 0
lhumerus -20.3301 65.0441 4.40665
lradius 35.372
lwrist -29.8419
lhand -2.37648 -18.7555
lfingers 7.12502
lthumb 23.3123 9.853
rfemur -1.37774 -7.17274 8.62568
rtibia -3.18055e-015
rfoot -18.192 -9.84657
rtoes 4.91814
lfemur -19.3859 3.26153 -19.1953
ltibia 23.6372
lfoot -14.4213 -3.91243
ltoes -53.793
376
root 0.0636897 18.8761 6.14056 12.7936 5.04443 3.1511
lowerback 25.3114 -2.25418 12.1701
upperback -2.90603 1.88273 5.92422
thorax -16.852 0.0381064 -0.79627
lowerneck -19.2181 -0.937184 -1.19991
upperneck 3.74832 -1.13514 1.88955
head 4.18618 -0.457992 0.681463
rclavicle 1.82882e-014 5.08889e-014
rhumerus -32.574 -43.8851 1.26767
rradius 39.8108
rwrist 17.7728
rhand -13.8945 -47.815
rfingers 7.12502
rthumb 12.2308 -77.4374
lclavicle 1.82882e-014 5.08889e-014
lhumerus -20.1559 64.9841 4.73897
lradius 35.4348
lwrist -29.8394
lhand -2.31984 -18.6641
lfingers 7.12502
lthumb 23.3666 9.93757
rfemur -1.54798 -6.81476 8.28073
rtibia 2.06736e-014
rfoot -18.1505 -9.977
rtoes 4.44756
lfemur -19.3298 3.61723 -19.5602
ltibia 23.5228
lfoot -14.3704 -3.89276
ltoes -53.9149
377
root 0.0610038 18.8787 6.14171 12.926 4.61451 3.29427
lowerback 25.2575 -2.25462 12.441
upperback -2.90243 1.98074 6.06682
thorax -16.8057 0.0659696 -0.816776
lowerneck -19.5855 -0.99275 -1.21561
upperneck 3.79655 -1.17874 1.62494
head 4.25516 -0.495496 0.596229
rclavicle -1.11319e-014 -4.13472e-014
rhumerus -32.6325 -43.8255 1.31385
rradius 39.8551
rwrist 17.8327
rhand -12.4375 -49.5826
rfingers 7.12502
rthumb 13.6354 -79.116
lclavicle -1.11319e-014 -4.13472e-014
lhumerus -19.884 64.9492 5.11556
lradius 35.4352
lwrist -29.879
lhand -2.2136 -18.5495
lfingers 7.12502
lthumb 23.4685 10.0391
rfemur -1.80548 -6.46022 8.08739
rtibia 0
rfoot -18.0796 -10.1221
rtoes 3.91939
lfemur -19.3515 3.87949 -19.7771
ltibia 23.3729
lfoot -14.3063 -3.77958
ltoes -54.016
378
root 0.0589936 18.8805 6.14465 13.0445 4.19245 3.37001
lowerback 25.1683 -2.27425 12.7694
upperback -2.86157 2.05959 6.21391
thorax -16.6945 0.0849025 -0.855508
lowerneck -19.9485 -0.960613 -1.17335
upperneck 3.79815 -1.11351 1.30316
head 4.30657 -0.482939 0.493529
rclavicle 6.36111e-015 3.18055e-014
rhumerus -32.7352 -43.9291 1.41044
rradius 39.8277
rwrist 17.8399
rhand -11.8446 -49.428
rfingers 7.12502
rthumb 14.2067 -78.9222
lclavicle 6.36111e-015 3.18055e-014
lhumerus -19.6002 64.8515 5.45881
lradius 35.3647
lwrist -29.7854
lhand -2.20914 -18.5012
lfingers 7.12502
lthumb 23.4728 10.0869
rfemur -2.0499 -6.09735 7.96104
rtibia 9.54166e-015
rfoot -18.0449 -10.2177
rtoes 3.65264
lfemur -19.3611 4.1251 -19.9152
ltibia 23.2344
lfoot -14.2598 -3.66019
ltoes -53.9774
379
root 0.0571106 18.8816 6.14608 13.1458 3.79263 3.43047
lowerback 25.1247 -2.30439 13.1217
upperback -2.82557 2.13815 6.34824
thorax -16.6105 0.0996685 -0.919208
lowerneck -20.1957 -0.877145 -1.00318
upperneck 3.64345 -0.999723 0.849629
head 4.2898 -0.454234 0.334035
rclavicle 1.66979e-014 -6.04305e-014
rhumerus -32.9779 -44.1247 1.62315
rradius 39.7953
rwrist 17.5919
rhand -12.3987 -48.6198
rfingers 7.12502
rthumb 13.6728 -78.1507
lclavicle 1.66979e-014 -6.04305e-014
lhumerus -19.2591 64.6987 5.86688
lradius 35.3223
lwrist -29.6158
lhand -2.21822 -18.5535
lfingers 7.12502
lthumb 23.4641 10.0357
rfemur -2.28165 -5.7503 7.84604
rtibia 9.54166e-015
rfoot -18.0038 -10.3045
rtoes 3.27107
lfemur -19.3714 4.47819 -20.0519
ltibia 23.108
lfoot -14.1631 -3.63497
ltoes -53.9481
380
root 0.0554756 18.883 6.14574 13.2651 3.34644 3.5495
lowerback 25.0947 -2.3904 13.2851
upperback -2.86436 2.09283 6.45566
thorax -16.6456 0.0683683 -0.866289
lowerneck -20.0951 -0.644007 -0.614245
upperneck 3.39889 -0.742363 0.357508
head 4.19211 -0.354437 0.141981
rclavicle -2.3059e-014 -1.04958e-013
rhumerus -32.9172 -44.0699 1.4461
rradius 39.8507
rwrist 17.2114
rhand -12.7987 -48.1199
rfingers 7.12502
rthumb 13.2873 -77.6763
lclavicle -2.3059e-014 -1.04958e-013
lhumerus -19.6083 64.2071 5.50817
lradius 35.4237
lwrist -29.2875
lhand -2.17955 -18.5178
lfingers 7.12502
lthumb 23.5012 10.0667
rfemur -2.55169 -5.37702 7.65851
rtibia 0
rfoot -17.9408 -10.4249
rtoes 2.72661
lfemur -19.4103 4.88084 -20.2732
ltibia 22.9913
lfoot -14.0875 -3.66219
ltoes -53.8913
